<svg xmlns="http://www.w3.org/2000/svg" xmlns:xlink="http://www.w3.org/1999/xlink" version="1.1" class="marks" width="745" height="439" viewBox="0 0 745 439"><rect width="745" height="439" fill="#000000"/><g fill="none" stroke-miterlimit="4" transform="translate(91,125)"><g class="mark-group role-frame root" role="graphics-object" aria-roledescription="group mark container"><g transform="translate(0,0)"><path class="background" aria-hidden="true" d="M0,0h560v0h-560Z"/><g><g class="mark-group role-scope concat_0_group" role="graphics-object" aria-roledescription="group mark container"><g transform="translate(0,0)"><path class="background" aria-hidden="true" d="M0,0h560v58h-560Z" fill="#000000" stroke="#ddd" stroke-width="0"/><g><g class="mark-group role-axis" role="graphics-symbol" aria-roledescription="axis" aria-label="Y-axis for a discrete scale with 2 values: Elysia, Aponia"><g transform="translate(0.5,0.5)"><path class="background" aria-hidden="true" d="M0,0h0v0h0Z" pointer-events="none"/><g><g class="mark-text role-axis-label" pointer-events="none"><text text-anchor="end" transform="translate(-10,18.000000000000004)" font-family="Inter, ui-sans-serif, system-ui" font-size="12px" font-weight="500" fill="#d8d8dc" opacity="1">Elysia</text><text text-anchor="end" transform="translate(-10,47)" font-family="Inter, ui-sans-serif, system-ui" font-size="12px" font-weight="500" fill="#d8d8dc" opacity="1">Aponia</text></g></g><path class="foreground" aria-hidden="true" d="" pointer-events="none" display="none"/></g></g><g class="mark-group role-scope" role="graphics-object" aria-roledescription="group mark container"><g transform="translate(0,8.500000000000004)"><path class="background" aria-hidden="true" d="M0,0L515.3026468110588,0C516.4064768600468,0,517.3026468110588,0.896169951012,517.3026468110588,2L517.3026468110588,10C517.3026468110588,11.103830048988,516.4064768600468,12,515.3026468110588,12L0,12C0,12,0,12,0,12L0,0C0,0,0,0,0,0Z"/><g clip-path="url(#clip1)"><g class="mark-group role-scope" role="graphics-object" aria-roledescription="group mark container"><g transform="translate(0,0)"><path class="background" aria-hidden="true" d="M0,0h0v12h0Z"/><g><g class="mark-rect role-mark concat_0_layer_0_marks" role="graphics-object" aria-roledescription="rect mark container"><path aria-label="throughput: 831379.253803; implementation: Elysia" role="graphics-symbol" aria-roledescription="bar" d="M0,0h517.3026468110588v12h-517.3026468110588Z" fill="#73737b"/></g></g><path class="foreground" aria-hidden="true" d="" display="none"/></g></g></g><path class="foreground" aria-hidden="true" d="" display="none"/></g><g transform="translate(0,37.5)"><path class="background" aria-hidden="true" d="M0,0L390.5938648218134,0C391.6976948708014,0,392.5938648218134,0.896169951012,392.5938648218134,2L392.5938648218134,10C392.5938648218134,11.103830048988,391.6976948708014,12,390.5938648218134,12L0,12C0,12,0,12,0,12L0,0C0,0,0,0,0,0Z"/><g clip-path="url(#clip2)"><g class="mark-group role-scope" role="graphics-object" aria-roledescription="group mark container"><g transform="translate(0,0)"><path class="background" aria-hidden="true" d="M0,0h0v12h0Z"/><g><g class="mark-rect role-mark concat_0_layer_0_marks" role="graphics-object" aria-roledescription="rect mark container"><path aria-label="throughput: 630954.425606; implementation: Aponia" role="graphics-symbol" aria-roledescription="bar" d="M0,0h392.5938648218134v12h-392.5938648218134Z" fill="#1348dc"/></g></g><path class="foreground" aria-hidden="true" d="" display="none"/></g></g></g><path class="foreground" aria-hidden="true" d="" display="none"/></g></g><g class="mark-text role-mark concat_0_layer_1_marks" role="graphics-object" aria-roledescription="text mark container"><text aria-label="throughput: 831379.253803; implementation: Elysia; throughputLabel: 831,379 ops/s" role="graphics-symbol" aria-roledescription="text mark" text-anchor="start" transform="translate(525.3026468110588,17.500000000000004)" font-family="ui-monospace, SFMono-Regular, Menlo, monospace" font-size="10px" font-weight="600" fill="#f4f4f5">831,379 ops/s</text><text aria-label="throughput: 630954.425606; implementation: Aponia; throughputLabel: 630,954 ops/s" role="graphics-symbol" aria-roledescription="text mark" text-anchor="start" transform="translate(400.5938648218134,46.5)" font-family="ui-monospace, SFMono-Regular, Menlo, monospace" font-size="10px" font-weight="600" fill="#f4f4f5">630,954 ops/s</text></g><g class="mark-group role-title"><g transform="translate(-67,-34)"><path class="background" aria-hidden="true" d="M0,0h0v0h0Z" pointer-events="none"/><g><g class="mark-text role-title-text" role="graphics-symbol" aria-roledescription="title" aria-label="Title text 'Throughput  −24.1%'" pointer-events="none"><text text-anchor="start" transform="translate(0,11)" font-family="Inter, ui-sans-serif, system-ui" font-size="14px" font-weight="600" fill="#ffffff" opacity="1">Throughput  −24.1%</text></g><g class="mark-text role-title-subtitle" role="graphics-symbol" aria-roledescription="subtitle" aria-label="Subtitle text 'Higher is better'" pointer-events="none"><text text-anchor="start" transform="translate(0,28)" font-family="ui-monospace, SFMono-Regular, Menlo, monospace" font-size="11px" fill="#8d8d96" opacity="1">Higher is better</text></g></g><path class="foreground" aria-hidden="true" d="" pointer-events="none" display="none"/></g></g></g><path class="foreground" aria-hidden="true" d="" display="none"/></g></g><g class="mark-group role-scope concat_1_group" role="graphics-object" aria-roledescription="group mark container"><g transform="translate(0,116)"><path class="background" aria-hidden="true" d="M0,0h560v58h-560Z" fill="#000000" stroke="#ddd" stroke-width="0"/><g><g class="mark-group role-axis" role="graphics-symbol" aria-roledescription="axis" aria-label="Y-axis for a discrete scale with 2 values: Elysia, Aponia"><g transform="translate(0.5,0.5)"><path class="background" aria-hidden="true" d="M0,0h0v0h0Z" pointer-events="none"/><g><g class="mark-text role-axis-label" pointer-events="none"><text text-anchor="end" transform="translate(-10,18.000000000000004)" font-family="Inter, ui-sans-serif, system-ui" font-size="12px" font-weight="500" fill="#d8d8dc" opacity="1">Elysia</text><text text-anchor="end" transform="translate(-10,47)" font-family="Inter, ui-sans-serif, system-ui" font-size="12px" font-weight="500" fill="#d8d8dc" opacity="1">Aponia</text></g></g><path class="foreground" aria-hidden="true" d="" pointer-events="none" display="none"/></g></g><g class="mark-group role-scope" role="graphics-object" aria-roledescription="group mark container"><g transform="translate(0,8.500000000000004)"><path class="background" aria-hidden="true" d="M0,0L425.42180998865297,0C426.525640037641,0,427.42180998865297,0.896169951012,427.42180998865297,2L427.42180998865297,10C427.42180998865297,11.103830048988,426.525640037641,12,425.42180998865297,12L0,12C0,12,0,12,0,12L0,0C0,0,0,0,0,0Z"/><g clip-path="url(#clip3)"><g class="mark-group role-scope" role="graphics-object" aria-roledescription="group mark container"><g transform="translate(0,0)"><path class="background" aria-hidden="true" d="M0,0h0v12h0Z"/><g><g class="mark-rect role-mark concat_1_layer_0_marks" role="graphics-object" aria-roledescription="rect mark container"><path aria-label="latencyMicroseconds: 1.52650646425; implementation: Elysia" role="graphics-symbol" aria-roledescription="bar" d="M0,0h427.42180998865297v12h-427.42180998865297Z" fill="#73737b"/></g></g><path class="foreground" aria-hidden="true" d="" display="none"/></g></g></g><path class="foreground" aria-hidden="true" d="" display="none"/></g><g transform="translate(0,37.5)"><path class="background" aria-hidden="true" d="M0,0L556.3525228724219,0C557.4563529214099,0,558.3525228724219,0.896169951012,558.3525228724219,2L558.3525228724219,10C558.3525228724219,11.103830048988,557.4563529214099,12,556.3525228724219,12L0,12C0,12,0,12,0,12L0,0C0,0,0,0,0,0Z"/><g clip-path="url(#clip4)"><g class="mark-group role-scope" role="graphics-object" aria-roledescription="group mark container"><g transform="translate(0,0)"><path class="background" aria-hidden="true" d="M0,0h0v12h0Z"/><g><g class="mark-rect role-mark concat_1_layer_0_marks" role="graphics-object" aria-roledescription="rect mark container"><path aria-label="latencyMicroseconds: 1.99411615312; implementation: Aponia" role="graphics-symbol" aria-roledescription="bar" d="M0,0h558.3525228724219v12h-558.3525228724219Z" fill="#1348dc"/></g></g><path class="foreground" aria-hidden="true" d="" display="none"/></g></g></g><path class="foreground" aria-hidden="true" d="" display="none"/></g></g><g class="mark-text role-mark concat_1_layer_1_marks" role="graphics-object" aria-roledescription="text mark container"><text aria-label="latencyMicroseconds: 1.52650646425; implementation: Elysia; latencyLabel: 1.5 µs" role="graphics-symbol" aria-roledescription="text mark" text-anchor="start" transform="translate(435.42180998865297,17.500000000000004)" font-family="ui-monospace, SFMono-Regular, Menlo, monospace" font-size="10px" font-weight="600" fill="#f4f4f5">1.5 µs</text><text aria-label="latencyMicroseconds: 1.99411615312; implementation: Aponia; latencyLabel: 2.0 µs" role="graphics-symbol" aria-roledescription="text mark" text-anchor="start" transform="translate(566.3525228724219,46.5)" font-family="ui-monospace, SFMono-Regular, Menlo, monospace" font-size="10px" font-weight="600" fill="#f4f4f5">2.0 µs</text></g><g class="mark-group role-title"><g transform="translate(-67,-34)"><path class="background" aria-hidden="true" d="M0,0h0v0h0Z" pointer-events="none"/><g><g class="mark-text role-title-text" role="graphics-symbol" aria-roledescription="title" aria-label="Title text 'Request latency  +30.6%'" pointer-events="none"><text text-anchor="start" transform="translate(0,11)" font-family="Inter, ui-sans-serif, system-ui" font-size="14px" font-weight="600" fill="#ffffff" opacity="1">Request latency  +30.6%</text></g><g class="mark-text role-title-subtitle" role="graphics-symbol" aria-roledescription="subtitle" aria-label="Subtitle text 'Lower is better'" pointer-events="none"><text text-anchor="start" transform="translate(0,28)" font-family="ui-monospace, SFMono-Regular, Menlo, monospace" font-size="11px" fill="#8d8d96" opacity="1">Lower is better</text></g></g><path class="foreground" aria-hidden="true" d="" pointer-events="none" display="none"/></g></g></g><path class="foreground" aria-hidden="true" d="" display="none"/></g></g><g class="mark-group role-scope concat_2_group" role="graphics-object" aria-roledescription="group mark container"><g transform="translate(0,232)"><path class="background" aria-hidden="true" d="M0,0h560v58h-560Z" fill="#000000" stroke="#ddd" stroke-width="0"/><g><g class="mark-group role-axis" role="graphics-symbol" aria-roledescription="axis" aria-label="Y-axis for a discrete scale with 2 values: Elysia, Aponia"><g transform="translate(0.5,0.5)"><path class="background" aria-hidden="true" d="M0,0h0v0h0Z" pointer-events="none"/><g><g class="mark-text role-axis-label" pointer-events="none"><text text-anchor="end" transform="translate(-10,18.000000000000004)" font-family="Inter, ui-sans-serif, system-ui" font-size="12px" font-weight="500" fill="#d8d8dc" opacity="1">Elysia</text><text text-anchor="end" transform="translate(-10,47)" font-family="Inter, ui-sans-serif, system-ui" font-size="12px" font-weight="500" fill="#d8d8dc" opacity="1">Aponia</text></g></g><path class="foreground" aria-hidden="true" d="" pointer-events="none" display="none"/></g></g><g class="mark-group role-scope" role="graphics-object" aria-roledescription="group mark container"><g transform="translate(0,8.500000000000004)"><path class="background" aria-hidden="true" d="M0,0L139.9473073191494,0C141.05113736813738,0,141.9473073191494,0.896169951012,141.9473073191494,2L141.9473073191494,10C141.9473073191494,11.103830048988,141.05113736813738,12,139.9473073191494,12L0,12C0,12,0,12,0,12L0,0C0,0,0,0,0,0Z"/><g clip-path="url(#clip5)"><g class="mark-group role-scope" role="graphics-object" aria-roledescription="group mark container"><g transform="translate(0,0)"><path class="background" aria-hidden="true" d="M0,0h0v12h0Z"/><g><g class="mark-rect role-mark concat_2_layer_0_marks" role="graphics-object" aria-roledescription="rect mark container"><path aria-label="latencyMilliseconds: 0.00456259202097; implementation: Elysia" role="graphics-symbol" aria-roledescription="bar" d="M0,0h141.9473073191494v12h-141.9473073191494Z" fill="#73737b"/></g></g><path class="foreground" aria-hidden="true" d="" display="none"/></g></g></g><path class="foreground" aria-hidden="true" d="" display="none"/></g><g transform="translate(0,37.5)"><path class="background" aria-hidden="true" d="M0,0L520.7903074207937,0C521.8941374697818,0,522.7903074207937,0.896169951012,522.7903074207937,2L522.7903074207937,10C522.7903074207937,11.103830048988,521.8941374697818,12,520.7903074207937,12L0,12C0,12,0,12,0,12L0,0C0,0,0,0,0,0Z"/><g clip-path="url(#clip6)"><g class="mark-group role-scope" role="graphics-object" aria-roledescription="group mark container"><g transform="translate(0,0)"><path class="background" aria-hidden="true" d="M0,0h0v12h0Z"/><g><g class="mark-rect role-mark concat_2_layer_0_marks" role="graphics-object" aria-roledescription="rect mark container"><path aria-label="latencyMilliseconds: 0.0168039741671; implementation: Aponia" role="graphics-symbol" aria-roledescription="bar" d="M0,0h522.7903074207937v12h-522.7903074207937Z" fill="#1348dc"/></g></g><path class="foreground" aria-hidden="true" d="" display="none"/></g></g></g><path class="foreground" aria-hidden="true" d="" display="none"/></g></g><g class="mark-text role-mark concat_2_layer_1_marks" role="graphics-object" aria-roledescription="text mark container"><text aria-label="latencyMilliseconds: 0.00456259202097; implementation: Elysia; latencyLabel: 0.005 ms" role="graphics-symbol" aria-roledescription="text mark" text-anchor="start" transform="translate(149.9473073191494,17.500000000000004)" font-family="ui-monospace, SFMono-Regular, Menlo, monospace" font-size="10px" font-weight="600" fill="#f4f4f5">0.005 ms</text><text aria-label="latencyMilliseconds: 0.0168039741671; implementation: Aponia; latencyLabel: 0.017 ms" role="graphics-symbol" aria-roledescription="text mark" text-anchor="start" transform="translate(530.7903074207937,46.5)" font-family="ui-monospace, SFMono-Regular, Menlo, monospace" font-size="10px" font-weight="600" fill="#f4f4f5">0.017 ms</text></g><g class="mark-group role-title"><g transform="translate(-67,-34)"><path class="background" aria-hidden="true" d="M0,0h0v0h0Z" pointer-events="none"/><g><g class="mark-text role-title-text" role="graphics-symbol" aria-roledescription="title" aria-label="Title text 'Startup  +268.3%'" pointer-events="none"><text text-anchor="start" transform="translate(0,11)" font-family="Inter, ui-sans-serif, system-ui" font-size="14px" font-weight="600" fill="#ffffff" opacity="1">Startup  +268.3%</text></g><g class="mark-text role-title-subtitle" role="graphics-symbol" aria-roledescription="subtitle" aria-label="Subtitle text 'Lower is better'" pointer-events="none"><text text-anchor="start" transform="translate(0,28)" font-family="ui-monospace, SFMono-Regular, Menlo, monospace" font-size="11px" fill="#8d8d96" opacity="1">Lower is better</text></g></g><path class="foreground" aria-hidden="true" d="" pointer-events="none" display="none"/></g></g></g><path class="foreground" aria-hidden="true" d="" display="none"/></g></g><g class="mark-group role-title"><g transform="translate(-67,-100)"><path class="background" aria-hidden="true" d="M0,0h0v0h0Z" pointer-events="none"/><g><g class="mark-text role-title-text" role="graphics-symbol" aria-roledescription="title" aria-label="Title text 'Benchmark'" pointer-events="none"><text text-anchor="start" transform="translate(0,17)" font-family="Inter, ui-sans-serif, system-ui" font-size="22px" font-weight="600" fill="#ffffff" opacity="1">Benchmark</text></g><g class="mark-text role-title-subtitle" role="graphics-symbol" aria-roledescription="subtitle" aria-label="Subtitle text 'Elysia vs Aponia'" pointer-events="none"><text text-anchor="start" transform="translate(0,39)" font-family="ui-monospace, SFMono-Regular, Menlo, monospace" font-size="11px" fill="#9a9aa2" opacity="1">Elysia vs Aponia</text></g></g><path class="foreground" aria-hidden="true" d="" pointer-events="none" display="none"/></g></g></g><path class="foreground" aria-hidden="true" d="" display="none"/></g></g></g><defs><clipPath id="clip1"><path d="M0,0L515.3026468110588,0C516.4064768600468,0,517.3026468110588,0.896169951012,517.3026468110588,2L517.3026468110588,10C517.3026468110588,11.103830048988,516.4064768600468,12,515.3026468110588,12L0,12C0,12,0,12,0,12L0,0C0,0,0,0,0,0Z"/></clipPath><clipPath id="clip2"><path d="M0,0L390.5938648218134,0C391.6976948708014,0,392.5938648218134,0.896169951012,392.5938648218134,2L392.5938648218134,10C392.5938648218134,11.103830048988,391.6976948708014,12,390.5938648218134,12L0,12C0,12,0,12,0,12L0,0C0,0,0,0,0,0Z"/></clipPath><clipPath id="clip3"><path d="M0,0L425.42180998865297,0C426.525640037641,0,427.42180998865297,0.896169951012,427.42180998865297,2L427.42180998865297,10C427.42180998865297,11.103830048988,426.525640037641,12,425.42180998865297,12L0,12C0,12,0,12,0,12L0,0C0,0,0,0,0,0Z"/></clipPath><clipPath id="clip4"><path d="M0,0L556.3525228724219,0C557.4563529214099,0,558.3525228724219,0.896169951012,558.3525228724219,2L558.3525228724219,10C558.3525228724219,11.103830048988,557.4563529214099,12,556.3525228724219,12L0,12C0,12,0,12,0,12L0,0C0,0,0,0,0,0Z"/></clipPath><clipPath id="clip5"><path d="M0,0L139.9473073191494,0C141.05113736813738,0,141.9473073191494,0.896169951012,141.9473073191494,2L141.9473073191494,10C141.9473073191494,11.103830048988,141.05113736813738,12,139.9473073191494,12L0,12C0,12,0,12,0,12L0,0C0,0,0,0,0,0Z"/></clipPath><clipPath id="clip6"><path d="M0,0L520.7903074207937,0C521.8941374697818,0,522.7903074207937,0.896169951012,522.7903074207937,2L522.7903074207937,10C522.7903074207937,11.103830048988,521.8941374697818,12,520.7903074207937,12L0,12C0,12,0,12,0,12L0,0C0,0,0,0,0,0Z"/></clipPath></defs></svg>